<svg width="140" height="169" viewBox="0 0 140 169" fill="none" xmlns="http://www.w3.org/2000/svg">
<path d="M7.17181 168.5C5.07913 168.5 3.49591 167.905 2.42216 166.715C1.35164 165.525 0.816376 163.82 0.816376 161.598V160.031H4.89372V161.912C4.89372 163.689 5.63857 164.577 7.12828 164.577C7.86024 164.577 8.41485 164.363 8.79211 163.934C9.1726 163.502 9.36284 162.802 9.36284 161.835C9.36284 160.684 9.10166 159.671 8.57929 158.797C8.05693 157.92 7.08959 156.868 5.67727 155.639C3.90058 154.072 2.65916 152.655 1.953 151.388C1.25007 150.12 0.8986 148.689 0.8986 147.093C0.8986 144.922 1.44676 143.244 2.54308 142.058C3.6394 140.868 5.2339 140.273 7.32659 140.273C9.39025 140.273 10.9509 140.868 12.0085 142.058C13.0694 143.244 13.5998 144.948 13.5998 147.17V148.307H9.52245V146.899C9.52245 145.958 9.33866 145.271 8.97107 144.839C8.6067 144.407 8.07144 144.191 7.36528 144.191C5.92716 144.191 5.20811 145.066 5.20811 146.817C5.20811 147.81 5.47574 148.739 6.011 149.603C6.54949 150.464 7.52328 151.508 8.93237 152.737C10.7381 154.307 11.9795 155.733 12.6566 157.013C13.337 158.293 13.6772 159.795 13.6772 161.52C13.6772 163.768 13.121 165.493 12.0085 166.696C10.8993 167.898 9.28707 168.5 7.17181 168.5ZM19.3609 140.665H25.2036L29.6727 168.108H25.3632L24.5748 162.657V162.734H19.6753L18.8917 168.108H14.8918L19.3609 140.665ZM24.067 159.01L22.1468 145.448H22.0694L20.188 159.01H24.067ZM31.7501 140.665H43.1599V144.582H36.0645V152.229H41.6315V156.152H36.0645V168.108H31.7501V140.665ZM45.2371 140.665H57V144.582H49.5515V151.837H55.4716V155.76H49.5515V164.185H57V168.108H45.2371V140.665ZM65.7421 140.665H70.0564V151.837H74.6852V140.665H78.9947V168.108H74.6852V155.76H70.0564V168.108H65.7421V140.665ZM88.4433 168.5C86.3281 168.5 84.7078 167.898 83.5824 166.696C82.4571 165.493 81.8944 163.794 81.8944 161.598V147.17C81.8944 144.974 82.4571 143.276 83.5824 142.077C84.7078 140.874 86.3281 140.273 88.4433 140.273C90.5618 140.273 92.1821 140.874 93.3042 142.077C94.4296 143.276 94.9922 144.974 94.9922 147.17V161.598C94.9922 163.794 94.4296 165.493 93.3042 166.696C92.1821 167.898 90.5618 168.5 88.4433 168.5ZM88.4433 164.577C89.933 164.577 90.6779 163.676 90.6779 161.874V146.899C90.6779 145.093 89.933 144.191 88.4433 144.191C86.9536 144.191 86.2088 145.093 86.2088 146.899V161.874C86.2088 163.676 86.9536 164.577 88.4433 164.577ZM104.165 168.5C102.075 168.5 100.481 167.905 99.3811 166.715C98.2847 165.525 97.7366 163.82 97.7366 161.598V140.665H102.051V161.912C102.051 162.854 102.24 163.534 102.617 163.953C102.997 164.369 103.541 164.577 104.247 164.577C104.95 164.577 105.49 164.369 105.867 163.953C106.248 163.534 106.438 162.854 106.438 161.912V140.665H110.597V161.598C110.597 163.82 110.048 165.525 108.948 166.715C107.852 167.905 106.257 168.5 104.165 168.5ZM119.263 168.5C117.17 168.5 115.587 167.905 114.513 166.715C113.443 165.525 112.907 163.82 112.907 161.598V160.031H116.985V161.912C116.985 163.689 117.73 164.577 119.219 164.577C119.951 164.577 120.506 164.363 120.883 163.934C121.264 163.502 121.454 162.802 121.454 161.835C121.454 160.684 121.193 159.671 120.67 158.797C120.148 157.92 119.181 156.868 117.768 155.639C115.992 154.072 114.75 152.655 114.044 151.388C113.341 150.12 112.99 148.689 112.99 147.093C112.99 144.922 113.538 143.244 114.634 142.058C115.731 140.868 117.325 140.273 119.418 140.273C121.481 140.273 123.042 140.868 124.1 142.058C125.16 143.244 125.691 144.948 125.691 147.17V148.307H121.614V146.899C121.614 145.958 121.43 145.271 121.062 144.839C120.698 144.407 120.163 144.191 119.456 144.191C118.018 144.191 117.299 145.066 117.299 146.817C117.299 147.81 117.567 148.739 118.102 149.603C118.641 150.464 119.614 151.508 121.023 152.737C122.829 154.307 124.071 155.733 124.748 157.013C125.428 158.293 125.768 159.795 125.768 161.52C125.768 163.768 125.212 165.493 124.1 166.696C122.99 167.898 121.378 168.5 119.263 168.5ZM128.237 140.665H140V144.582H132.551V151.837H138.472V155.76H132.551V164.185H140V168.108H128.237V140.665Z" fill="#B38A58"/>
<path fill-rule="evenodd" clip-rule="evenodd" d="M70.8116 46.5048C75.6637 46.5048 79.7115 50.1857 79.7115 54.8571C79.7115 59.2789 75.6637 62.9677 70.8116 62.9677C65.6941 62.9677 61.6463 59.2789 61.6463 54.8571C61.6463 50.677 65.6941 46.5048 70.8116 46.5048ZM41.4247 68.1226C43.0421 68.1226 44.3942 69.3547 44.3942 70.8287V79.4306C43.0421 79.6723 42.2377 80.4132 41.1594 81.3958C40.3464 81.8871 39.8073 82.8697 39.2682 83.3611C38.729 82.8697 38.4637 82.1289 38.4637 81.6376V70.8287C38.4637 69.3547 39.8073 68.1226 41.4247 68.1226ZM99.9332 68.1226C101.816 68.1226 103.168 69.3547 103.168 70.8287V81.6376C103.168 82.1289 102.629 82.8697 102.09 83.3611C101.816 82.3784 101.011 81.8871 100.472 81.3958C99.394 80.4132 98.3158 79.6723 96.9637 79.4306V70.8287C97.2375 69.3547 98.581 68.1226 99.9332 68.1226ZM70.8116 68.1226C79.1724 68.1226 86.994 73.0357 89.955 79.6723C89.1506 80.1636 88.6114 80.4132 88.3376 80.9045L72.1637 95.3943C71.6245 95.6439 71.0854 96.3769 70.8116 96.8683C70.2724 96.3769 69.7333 95.8856 69.468 95.3943L53.2941 80.9045C52.4811 80.4132 52.2158 80.1636 51.4029 79.6723C54.6377 73.0357 62.1855 68.1226 70.8116 68.1226ZM112.068 57.0719C113.951 57.0719 115.303 58.2963 115.303 59.7702V89.0073H114.764C114.764 90.4812 114.49 91.7134 113.411 92.9378L99.394 114.563C98.0419 116.529 97.2375 118.736 97.2375 121.192V126.355H73.7811V104.238C73.7811 102.273 74.8593 100.307 76.4767 98.8335L92.6506 84.3437C93.1898 83.8524 93.9343 83.6028 94.6788 83.6028C95.4147 83.6028 96.1592 83.8524 96.6984 84.3437C97.7766 85.3263 97.7766 87.042 96.6984 88.0246L86.4549 97.3596C85.6419 98.1004 85.6419 100.066 86.4549 100.799C86.994 101.29 87.7984 101.54 88.5772 101.54C89.3474 101.54 90.0919 101.29 90.4941 100.799L106.403 86.5507C108.02 84.835 109.098 83.1115 109.098 80.9045V59.7702C109.098 58.2963 110.45 57.0719 112.068 57.0719ZM29.5638 57.3137C31.1812 57.3137 32.5333 58.5459 32.5333 60.0198V81.3958C32.5333 83.3611 33.6116 85.3263 35.4942 86.8002L51.1376 101.29C51.6767 101.781 52.4811 102.031 53.2599 102.031C54.0301 102.031 54.7746 101.781 55.1768 101.29C56.255 100.307 56.255 98.5918 55.1768 97.6091L45.1986 88.2742C44.1203 87.5333 44.1203 85.5681 45.1986 84.5854C45.6094 84.2189 46.3453 84.0317 47.1241 84.0317C47.8942 84.0317 48.7072 84.2189 49.2463 84.5854L65.4203 99.0831C67.0376 100.557 68.1159 102.522 68.1159 104.737V126.846H44.3942V121.442C44.1203 119.476 43.3159 117.02 41.9638 114.805L27.9464 93.1873C27.4073 91.9551 26.6029 90.4812 26.6029 89.2568V60.0198C26.6029 58.5459 27.9464 57.3137 29.5638 57.3137ZM70.2724 41.1003C62.1855 41.1003 55.4506 47.2379 55.4506 54.6153C55.4506 58.2963 57.3333 61.7355 60.3028 64.4416C57.8724 65.4242 55.9897 66.1573 53.8332 67.8808C52.2158 69.1052 50.8637 70.3374 49.5202 71.8113V70.8287C49.5202 66.4069 45.4724 62.9677 40.6203 62.9677C39.8073 62.9677 38.729 63.2094 37.6508 63.2094V60.0198C37.6508 55.8397 33.6116 52.151 29.0247 52.151C24.1725 52.151 20.1248 55.8397 20.1248 60.0198V89.2568C20.1248 91.7134 20.9377 94.1699 22.2898 95.8856L36.3072 117.511C37.1116 118.736 37.6508 120.21 37.6508 121.442V129.544C37.6508 131.026 39.0029 132.251 40.6203 132.251H99.6593C101.277 132.251 102.629 131.026 102.629 129.544V121.442C102.629 119.968 103.168 118.736 103.981 117.511L118.264 95.8856C119.616 93.9204 120.155 91.7134 120.155 89.2568V60.0198C120.694 55.8397 116.646 52.151 111.794 52.151C107.216 52.151 103.168 55.8397 103.168 60.0198V63.2094C102.09 62.9677 101.011 62.9677 99.9332 62.9677C95.3463 62.9677 91.3071 66.4069 91.3071 70.8287V71.8113C89.955 70.3374 88.6114 69.1052 86.994 67.8808C84.8375 66.4069 82.9463 65.1747 80.5245 64.4416C83.4854 61.7355 85.1028 58.2963 85.1028 54.6153C85.1028 47.2379 78.3679 41.1003 70.2724 41.1003Z" fill="#B38A58"/>
<path d="M11 54.931L72.4702 7" stroke="#B38A58" stroke-width="16" stroke-miterlimit="10" stroke-linejoin="round"/>
<path d="M130.46 54.8011L69.0458 6.75635" stroke="#B38A58" stroke-width="16" stroke-miterlimit="10" stroke-linejoin="round"/>
</svg>
