<svg width="18" height="24" viewBox="0 0 18 24" fill="none" xmlns="http://www.w3.org/2000/svg">
<path d="M6.001 11.949C6 6 8 2 12 0C12.5 6 18 8 18 15C18 17.3869 17.0518 19.6761 15.364 21.364C13.6761 23.0518 11.3869 24 9 24C6.61305 24 4.32387 23.0518 2.63604 21.364C0.948211 19.6761 3.55683e-08 17.3869 0 15C0 11.5 1 10 3 8C3 11 6.001 11.949 6.001 11.949Z" fill="#F16923"/>
<path d="M9 23.75C4.974 23.75 1.565 21.134 0.362 17.512C1.45 21.259 4.902 24 9 24C13.098 24 16.55 21.259 17.638 17.512C16.435 21.134 13.026 23.75 9 23.75Z" fill="#010101"/>
<path d="M13.5 17.5C13.5 18.6935 13.0259 19.8381 12.182 20.682C11.3381 21.5259 10.1935 22 9 22C7.80653 22 6.66193 21.5259 5.81802 20.682C4.97411 19.8381 4.5 18.6935 4.5 17.5C4.5 15.823 5 14.958 6 14C6 16 7.5 16.5 7.5 16.5C7.5 13.65 8.5 11.958 10.5 11C10.75 13.875 13.5 14.813 13.5 17.5Z" fill="#FDB816"/>
<path d="M7.5 16.75C7.5 13.9 8.5 12.208 10.5 11.25C10.745 14.068 13.386 15.029 13.49 17.597C13.491 17.564 13.5 17.533 13.5 17.5C13.5 14.813 10.75 13.875 10.5 11C8.5 11.958 7.5 13.65 7.5 16.5C7.5 16.5 6 16 6 14C5 14.958 4.5 15.823 4.5 17.5C4.5 17.524 4.507 17.546 4.507 17.57C4.544 16.015 5.037 15.172 6 14.25C6 16.25 7.5 16.75 7.5 16.75Z" fill="white"/>
<path d="M9 21.75C7.81945 21.7493 6.68653 21.2844 5.84589 20.4555C5.00524 19.6267 4.52433 18.5004 4.507 17.32C4.506 17.382 4.5 17.436 4.5 17.5C4.5 18.6935 4.97411 19.8381 5.81802 20.682C6.66193 21.5259 7.80653 22 9 22C10.1935 22 11.3381 21.5259 12.182 20.682C13.0259 19.8381 13.5 18.6935 13.5 17.5C13.5 17.447 13.492 17.399 13.49 17.347C13.4662 18.5224 12.9828 19.6416 12.1434 20.4647C11.3041 21.2878 10.1756 21.7492 9 21.75Z" fill="#010101"/>
<path d="M6.001 12.199C6 6.25 8 2.25 12 0.25C12.497 6.212 17.925 8.23 17.994 15.123C17.994 15.082 18 15.042 18 15C18 8 12.5 6 12 0C8 2 6 6 6.001 11.949C6.001 11.949 3 11 3 8C1 10 0 11.5 0 15C0 15.036 0.00500011 15.072 0.00500011 15.108C0.0350001 11.715 1.03 10.22 3 8.25C3 11.25 6.001 12.199 6.001 12.199Z" fill="white"/>
<path d="M6.001 11.949C6 6 8 2 12 0C12.5 6 18 8 18 15C18 17.3869 17.0518 19.6761 15.364 21.364C13.6761 23.0518 11.3869 24 9 24C6.61305 24 4.32387 23.0518 2.63604 21.364C0.948211 19.6761 3.55683e-08 17.3869 0 15C0 11.5 1 10 3 8C3 11 6.001 11.949 6.001 11.949Z" fill="url(#paint0_linear_999_5102)"/>
<defs>
<linearGradient id="paint0_linear_999_5102" x1="1.90578" y1="8.45883" x2="18.3971" y2="16.1488" gradientUnits="userSpaceOnUse">
<stop stop-color="white" stop-opacity="0.2"/>
<stop offset="1" stop-color="white" stop-opacity="0"/>
</linearGradient>
</defs>
</svg>
