<svg width="310" height="182" viewBox="0 0 310 182" fill="none" xmlns="http://www.w3.org/2000/svg">
<rect width="310" height="182" fill="#D9D9D9"/>
<path d="M85.9531 39H84.4971L78.6411 30.12V39H77.1851V27.832H78.6411L84.4971 36.696V27.832H85.9531V39ZM92.2591 39.144C91.4378 39.144 90.6911 38.9573 90.0191 38.584C89.3578 38.2107 88.8351 37.6827 88.4511 37C88.0778 36.3067 87.8911 35.5067 87.8911 34.6C87.8911 33.704 88.0831 32.9147 88.4671 32.232C88.8618 31.5387 89.3951 31.0107 90.0671 30.648C90.7391 30.2747 91.4911 30.088 92.3231 30.088C93.1551 30.088 93.9071 30.2747 94.5791 30.648C95.2511 31.0107 95.7791 31.5333 96.1631 32.216C96.5578 32.8987 96.7551 33.6933 96.7551 34.6C96.7551 35.5067 96.5525 36.3067 96.1471 37C95.7525 37.6827 95.2138 38.2107 94.5311 38.584C93.8485 38.9573 93.0911 39.144 92.2591 39.144ZM92.2591 37.864C92.7818 37.864 93.2725 37.7413 93.7311 37.496C94.1898 37.2507 94.5578 36.8827 94.8351 36.392C95.1231 35.9013 95.2671 35.304 95.2671 34.6C95.2671 33.896 95.1285 33.2987 94.8511 32.808C94.5738 32.3173 94.2111 31.9547 93.7631 31.72C93.3151 31.4747 92.8298 31.352 92.3071 31.352C91.7738 31.352 91.2831 31.4747 90.8351 31.72C90.3978 31.9547 90.0458 32.3173 89.7791 32.808C89.5125 33.2987 89.3791 33.896 89.3791 34.6C89.3791 35.3147 89.5071 35.9173 89.7631 36.408C90.0298 36.8987 90.3818 37.2667 90.8191 37.512C91.2565 37.7467 91.7365 37.864 92.2591 37.864ZM110.391 31.112C110.391 32.04 110.071 32.8133 109.431 33.432C108.802 34.04 107.836 34.344 106.535 34.344H104.391V39H102.935V27.848H106.535C107.794 27.848 108.748 28.152 109.399 28.76C110.06 29.368 110.391 30.152 110.391 31.112ZM106.535 33.144C107.346 33.144 107.943 32.968 108.327 32.616C108.711 32.264 108.903 31.7627 108.903 31.112C108.903 29.736 108.114 29.048 106.535 29.048H104.391V33.144H106.535ZM116.553 30.072C117.214 30.072 117.811 30.216 118.345 30.504C118.878 30.7813 119.294 31.2027 119.593 31.768C119.902 32.3333 120.057 33.0213 120.057 33.832V39H118.617V34.04C118.617 33.1653 118.398 32.4987 117.961 32.04C117.523 31.5707 116.926 31.336 116.169 31.336C115.401 31.336 114.787 31.576 114.329 32.056C113.881 32.536 113.657 33.2347 113.657 34.152V39H112.201V27.16H113.657V31.48C113.945 31.032 114.339 30.6853 114.841 30.44C115.353 30.1947 115.923 30.072 116.553 30.072ZM126.259 39.144C125.438 39.144 124.691 38.9573 124.019 38.584C123.358 38.2107 122.835 37.6827 122.451 37C122.078 36.3067 121.891 35.5067 121.891 34.6C121.891 33.704 122.083 32.9147 122.467 32.232C122.862 31.5387 123.395 31.0107 124.067 30.648C124.739 30.2747 125.491 30.088 126.323 30.088C127.155 30.088 127.907 30.2747 128.579 30.648C129.251 31.0107 129.779 31.5333 130.163 32.216C130.558 32.8987 130.755 33.6933 130.755 34.6C130.755 35.5067 130.552 36.3067 130.147 37C129.752 37.6827 129.214 38.2107 128.531 38.584C127.848 38.9573 127.091 39.144 126.259 39.144ZM126.259 37.864C126.782 37.864 127.272 37.7413 127.731 37.496C128.19 37.2507 128.558 36.8827 128.835 36.392C129.123 35.9013 129.267 35.304 129.267 34.6C129.267 33.896 129.128 33.2987 128.851 32.808C128.574 32.3173 128.211 31.9547 127.763 31.72C127.315 31.4747 126.83 31.352 126.307 31.352C125.774 31.352 125.283 31.4747 124.835 31.72C124.398 31.9547 124.046 32.3173 123.779 32.808C123.512 33.2987 123.379 33.896 123.379 34.6C123.379 35.3147 123.507 35.9173 123.763 36.408C124.03 36.8987 124.382 37.2667 124.819 37.512C125.256 37.7467 125.736 37.864 126.259 37.864ZM134.446 31.432V36.6C134.446 37.0267 134.536 37.3307 134.718 37.512C134.899 37.6827 135.214 37.768 135.661 37.768H136.734V39H135.422C134.611 39 134.003 38.8133 133.598 38.44C133.192 38.0667 132.99 37.4533 132.99 36.6V31.432H131.854V30.232H132.99V28.024H134.446V30.232H136.734V31.432H134.446ZM142.322 39.144C141.5 39.144 140.754 38.9573 140.082 38.584C139.42 38.2107 138.898 37.6827 138.514 37C138.14 36.3067 137.954 35.5067 137.954 34.6C137.954 33.704 138.146 32.9147 138.53 32.232C138.924 31.5387 139.458 31.0107 140.13 30.648C140.802 30.2747 141.554 30.088 142.386 30.088C143.218 30.088 143.97 30.2747 144.642 30.648C145.314 31.0107 145.842 31.5333 146.226 32.216C146.62 32.8987 146.818 33.6933 146.818 34.6C146.818 35.5067 146.615 36.3067 146.21 37C145.815 37.6827 145.276 38.2107 144.594 38.584C143.911 38.9573 143.154 39.144 142.322 39.144ZM142.322 37.864C142.844 37.864 143.335 37.7413 143.794 37.496C144.252 37.2507 144.62 36.8827 144.898 36.392C145.186 35.9013 145.33 35.304 145.33 34.6C145.33 33.896 145.191 33.2987 144.914 32.808C144.636 32.3173 144.274 31.9547 143.826 31.72C143.378 31.4747 142.892 31.352 142.37 31.352C141.836 31.352 141.346 31.4747 140.898 31.72C140.46 31.9547 140.108 32.3173 139.842 32.808C139.575 33.2987 139.442 33.896 139.442 34.6C139.442 35.3147 139.57 35.9173 139.826 36.408C140.092 36.8987 140.444 37.2667 140.882 37.512C141.319 37.7467 141.799 37.864 142.322 37.864ZM151.836 39.144C151.164 39.144 150.561 39.032 150.028 38.808C149.495 38.5733 149.073 38.2533 148.764 37.848C148.455 37.432 148.284 36.9573 148.252 36.424H149.756C149.799 36.8613 150.001 37.2187 150.364 37.496C150.737 37.7733 151.223 37.912 151.82 37.912C152.375 37.912 152.812 37.7893 153.132 37.544C153.452 37.2987 153.612 36.9893 153.612 36.616C153.612 36.232 153.441 35.9493 153.1 35.768C152.759 35.576 152.231 35.3893 151.516 35.208C150.865 35.0373 150.332 34.8667 149.916 34.696C149.511 34.5147 149.159 34.2533 148.86 33.912C148.572 33.56 148.428 33.1013 148.428 32.536C148.428 32.088 148.561 31.6773 148.828 31.304C149.095 30.9307 149.473 30.6373 149.964 30.424C150.455 30.2 151.015 30.088 151.644 30.088C152.615 30.088 153.399 30.3333 153.996 30.824C154.593 31.3147 154.913 31.9867 154.956 32.84H153.5C153.468 32.3813 153.281 32.0133 152.94 31.736C152.609 31.4587 152.161 31.32 151.596 31.32C151.073 31.32 150.657 31.432 150.348 31.656C150.039 31.88 149.884 32.1733 149.884 32.536C149.884 32.824 149.975 33.064 150.156 33.256C150.348 33.4373 150.583 33.5867 150.86 33.704C151.148 33.8107 151.543 33.9333 152.044 34.072C152.673 34.2427 153.185 34.4133 153.58 34.584C153.975 34.744 154.311 34.9893 154.588 35.32C154.876 35.6507 155.025 36.0827 155.036 36.616C155.036 37.096 154.903 37.528 154.636 37.912C154.369 38.296 153.991 38.6 153.5 38.824C153.02 39.0373 152.465 39.144 151.836 39.144ZM167.949 36.52H163.085L162.189 39H160.653L164.685 27.912H166.365L170.381 39H168.845L167.949 36.52ZM167.533 35.336L165.517 29.704L163.501 35.336H167.533ZM175.402 37.656L178.122 30.232H179.674L176.234 39H174.538L171.098 30.232H172.666L175.402 37.656ZM180.563 34.584C180.563 33.688 180.744 32.904 181.107 32.232C181.47 31.5493 181.966 31.0213 182.595 30.648C183.235 30.2747 183.944 30.088 184.723 30.088C185.491 30.088 186.158 30.2533 186.723 30.584C187.288 30.9147 187.71 31.3307 187.987 31.832V30.232H189.459V39H187.987V37.368C187.699 37.88 187.267 38.3067 186.691 38.648C186.126 38.9787 185.464 39.144 184.707 39.144C183.928 39.144 183.224 38.952 182.595 38.568C181.966 38.184 181.47 37.6453 181.107 36.952C180.744 36.2587 180.563 35.4693 180.563 34.584ZM187.987 34.6C187.987 33.9387 187.854 33.3627 187.587 32.872C187.32 32.3813 186.958 32.008 186.499 31.752C186.051 31.4853 185.555 31.352 185.011 31.352C184.467 31.352 183.971 31.48 183.523 31.736C183.075 31.992 182.718 32.3653 182.451 32.856C182.184 33.3467 182.051 33.9227 182.051 34.584C182.051 35.256 182.184 35.8427 182.451 36.344C182.718 36.8347 183.075 37.2133 183.523 37.48C183.971 37.736 184.467 37.864 185.011 37.864C185.555 37.864 186.051 37.736 186.499 37.48C186.958 37.2133 187.32 36.8347 187.587 36.344C187.854 35.8427 187.987 35.2613 187.987 34.6ZM192.672 28.808C192.394 28.808 192.16 28.712 191.968 28.52C191.776 28.328 191.68 28.0933 191.68 27.816C191.68 27.5387 191.776 27.304 191.968 27.112C192.16 26.92 192.394 26.824 192.672 26.824C192.938 26.824 193.162 26.92 193.344 27.112C193.536 27.304 193.632 27.5387 193.632 27.816C193.632 28.0933 193.536 28.328 193.344 28.52C193.162 28.712 192.938 28.808 192.672 28.808ZM193.376 30.232V39H191.92V30.232H193.376ZM197.313 27.16V39H195.857V27.16H197.313ZM199.251 34.584C199.251 33.688 199.432 32.904 199.795 32.232C200.157 31.5493 200.653 31.0213 201.283 30.648C201.923 30.2747 202.632 30.088 203.411 30.088C204.179 30.088 204.845 30.2533 205.411 30.584C205.976 30.9147 206.397 31.3307 206.675 31.832V30.232H208.147V39H206.675V37.368C206.387 37.88 205.955 38.3067 205.379 38.648C204.813 38.9787 204.152 39.144 203.395 39.144C202.616 39.144 201.912 38.952 201.283 38.568C200.653 38.184 200.157 37.6453 199.795 36.952C199.432 36.2587 199.251 35.4693 199.251 34.584ZM206.675 34.6C206.675 33.9387 206.541 33.3627 206.275 32.872C206.008 32.3813 205.645 32.008 205.187 31.752C204.739 31.4853 204.243 31.352 203.699 31.352C203.155 31.352 202.659 31.48 202.211 31.736C201.763 31.992 201.405 32.3653 201.139 32.856C200.872 33.3467 200.739 33.9227 200.739 34.584C200.739 35.256 200.872 35.8427 201.139 36.344C201.405 36.8347 201.763 37.2133 202.211 37.48C202.659 37.736 203.155 37.864 203.699 37.864C204.243 37.864 204.739 37.736 205.187 37.48C205.645 37.2133 206.008 36.8347 206.275 36.344C206.541 35.8427 206.675 35.2613 206.675 34.6ZM212.063 31.864C212.362 31.3413 212.799 30.9147 213.375 30.584C213.951 30.2533 214.607 30.088 215.343 30.088C216.132 30.088 216.842 30.2747 217.471 30.648C218.1 31.0213 218.596 31.5493 218.959 32.232C219.322 32.904 219.503 33.688 219.503 34.584C219.503 35.4693 219.322 36.2587 218.959 36.952C218.596 37.6453 218.095 38.184 217.455 38.568C216.826 38.952 216.122 39.144 215.343 39.144C214.586 39.144 213.919 38.9787 213.343 38.648C212.778 38.3173 212.351 37.896 212.063 37.384V39H210.607V27.16H212.063V31.864ZM218.015 34.584C218.015 33.9227 217.882 33.3467 217.615 32.856C217.348 32.3653 216.986 31.992 216.527 31.736C216.079 31.48 215.583 31.352 215.039 31.352C214.506 31.352 214.01 31.4853 213.551 31.752C213.103 32.008 212.74 32.3867 212.463 32.888C212.196 33.3787 212.063 33.9493 212.063 34.6C212.063 35.2613 212.196 35.8427 212.463 36.344C212.74 36.8347 213.103 37.2133 213.551 37.48C214.01 37.736 214.506 37.864 215.039 37.864C215.583 37.864 216.079 37.736 216.527 37.48C216.986 37.2133 217.348 36.8347 217.615 36.344C217.882 35.8427 218.015 35.256 218.015 34.584ZM222.876 27.16V39H221.42V27.16H222.876ZM233.357 34.28C233.357 34.5573 233.341 34.8507 233.309 35.16H226.301C226.354 36.024 226.648 36.7013 227.181 37.192C227.725 37.672 228.381 37.912 229.149 37.912C229.778 37.912 230.301 37.768 230.717 37.48C231.144 37.1813 231.442 36.7867 231.613 36.296H233.181C232.946 37.1387 232.477 37.8267 231.773 38.36C231.069 38.8827 230.194 39.144 229.149 39.144C228.317 39.144 227.57 38.9573 226.909 38.584C226.258 38.2107 225.746 37.6827 225.373 37C225 36.3067 224.813 35.5067 224.813 34.6C224.813 33.6933 224.994 32.8987 225.357 32.216C225.72 31.5333 226.226 31.0107 226.877 30.648C227.538 30.2747 228.296 30.088 229.149 30.088C229.981 30.088 230.717 30.2693 231.357 30.632C231.997 30.9947 232.488 31.496 232.829 32.136C233.181 32.7653 233.357 33.48 233.357 34.28ZM231.853 33.976C231.853 33.4213 231.73 32.9467 231.485 32.552C231.24 32.1467 230.904 31.8427 230.477 31.64C230.061 31.4267 229.597 31.32 229.085 31.32C228.349 31.32 227.72 31.5547 227.197 32.024C226.685 32.4933 226.392 33.144 226.317 33.976H231.853Z" fill="#737373"/>
<path fill-rule="evenodd" clip-rule="evenodd" d="M203.295 103.961H196.225V111.032H203.295V103.961Z" fill="#737373"/>
<path fill-rule="evenodd" clip-rule="evenodd" d="M203.331 125.11V115.348C205.774 114.906 207.983 113.617 209.569 111.706C211.154 109.796 212.015 107.387 212 104.905C211.992 103.517 211.706 102.146 211.16 100.871C210.613 99.5956 209.817 98.4428 208.818 97.4803L171.837 61.0405C169.851 59.0888 167.176 57.9967 164.392 58L164.374 58.0177C161.6 58.0134 158.935 59.096 156.949 61.0334L152.47 65.4244C151.702 64.2331 150.649 63.2531 149.405 62.5738C148.161 61.8944 146.767 61.5375 145.35 61.5354H137.607C135.345 61.5411 133.178 62.4435 131.581 64.0447C129.984 65.646 129.087 67.8154 129.087 70.0771V88.4614L119.813 97.5969C118.427 98.9643 117.447 100.689 116.983 102.58C116.518 104.471 116.587 106.453 117.181 108.307C117.776 110.161 118.873 111.814 120.351 113.082C121.828 114.35 123.628 115.184 125.551 115.49V142.851H122.016V118.163C118.858 116.91 116.26 114.556 114.704 111.537C113.147 108.517 112.737 105.036 113.548 101.737C114.17 99.2108 115.479 96.9064 117.331 95.0797L125.551 86.9835V79.2126C119.138 79.3293 113.966 84.6643 113.966 91.2155H113.679C107.779 91.2155 102.956 96.0802 102.956 102.119V104.353C102.956 106.584 103.642 108.67 104.759 110.427C102.999 111.469 101.541 112.954 100.531 114.733C99.5208 116.512 98.9931 118.524 99.0001 120.57C99.0001 127.012 104.144 132.244 110.476 132.244H116.677V142.851C112.788 142.851 109.606 146.032 109.606 149.921H208.599C208.6 148.908 208.383 147.907 207.962 146.986C207.541 146.064 206.926 145.245 206.159 144.583C206.861 143.506 207.419 142.341 207.817 141.118C208.704 138.494 208.833 135.674 208.192 132.98C207.55 130.286 206.164 127.827 204.19 125.884L204.165 125.863C203.896 125.602 203.618 125.351 203.331 125.11V125.11ZM146.764 70.0771V77.4732L136.158 87.9346V70.0771C136.156 69.8853 136.193 69.6952 136.265 69.5175C136.337 69.3398 136.443 69.1781 136.578 69.0415C136.712 68.9049 136.872 68.7962 137.049 68.7215C137.226 68.6469 137.415 68.6077 137.607 68.6063H145.35C145.54 68.6062 145.729 68.6445 145.904 68.7191C146.08 68.7937 146.238 68.903 146.37 69.0403C146.502 69.1777 146.605 69.3403 146.673 69.5185C146.741 69.6967 146.771 69.8867 146.764 70.0771V70.0771ZM132.622 142.851V104.739L164.377 73.4322L196.225 104.792V111.032H196.26V121.832C194.489 121.541 192.68 121.576 190.922 121.935V110.028C190.92 109.357 190.652 108.714 190.178 108.24C189.704 107.765 189.061 107.498 188.39 107.496H175.776C175.105 107.498 174.462 107.765 173.988 108.24C173.513 108.714 173.246 109.357 173.244 110.028V122.642C173.248 123.312 173.516 123.954 173.99 124.428C174.464 124.902 175.105 125.17 175.776 125.173H184.321C182.802 126.468 181.556 128.052 180.655 129.833C178.756 130.48 177.073 131.637 175.79 133.178C174.507 134.72 173.674 136.585 173.382 138.569C173.326 138.817 173.294 139.071 173.29 139.326C173.255 139.609 173.239 139.895 173.244 140.181V140.217C173.244 141.129 173.357 142.009 173.566 142.851H169.709C169.709 140.91 168.429 139.315 166.87 139.315H166.166V111.463C166.166 109.267 164.551 107.496 162.546 107.496H148.581C146.576 107.496 144.961 109.267 144.961 111.463V139.315H144.264C142.709 139.315 141.425 140.91 141.425 142.851H132.622ZM177.275 142.851C177.837 144.297 178.852 145.513 180.138 146.351H199.124V146.386L199.187 146.351C200.887 145.436 202.316 144.09 203.331 142.448C203.804 141.68 204.184 140.859 204.462 140.001C205.143 138.004 205.246 135.856 204.758 133.803C204.27 131.751 203.211 129.878 201.705 128.401C199.618 126.33 196.796 125.169 193.856 125.173C189.437 125.173 185.583 127.797 183.745 131.558C183.562 131.941 183.301 132.281 182.978 132.556C182.655 132.831 182.278 133.034 181.871 133.153C179.184 134.005 177.204 136.42 176.85 139.29C176.815 139.361 176.815 139.432 176.85 139.502C176.78 139.715 176.78 139.962 176.78 140.213C176.78 141.146 176.957 142.034 177.275 142.851V142.851ZM160.87 128.709C161.339 128.709 161.789 128.523 162.12 128.191C162.452 127.86 162.638 127.41 162.638 126.941C162.638 126.472 162.452 126.023 162.12 125.691C161.789 125.36 161.339 125.173 160.87 125.173C160.401 125.173 159.952 125.36 159.62 125.691C159.289 126.023 159.103 126.472 159.103 126.941C159.103 127.41 159.289 127.86 159.62 128.191C159.952 128.523 160.401 128.709 160.87 128.709Z" fill="#737373"/>
</svg>
