<svg width="140" height="169" viewBox="0 0 140 169" fill="none" xmlns="http://www.w3.org/2000/svg">
<path d="M7.17184 168.5C5.07916 168.5 3.49594 167.905 2.42219 166.715C1.35167 165.525 0.816406 163.82 0.816406 161.598V160.031H4.89375V161.912C4.89375 163.689 5.6386 164.577 7.12831 164.577C7.86027 164.577 8.41488 164.363 8.79214 163.934C9.17263 163.502 9.36287 162.802 9.36287 161.835C9.36287 160.684 9.10169 159.671 8.57932 158.798C8.05696 157.921 7.08962 156.868 5.6773 155.639C3.90061 154.072 2.65919 152.655 1.95303 151.388C1.2501 150.121 0.89863 148.689 0.89863 147.093C0.89863 144.923 1.44679 143.244 2.54311 142.058C3.63943 140.868 5.23393 140.273 7.32662 140.273C9.39028 140.273 10.9509 140.868 12.0086 142.058C13.0694 143.244 13.5998 144.948 13.5998 147.17V148.307H9.52248V146.899C9.52248 145.958 9.33869 145.271 8.9711 144.839C8.60673 144.407 8.07147 144.191 7.36531 144.191C5.92719 144.191 5.20814 145.066 5.20814 146.817C5.20814 147.81 5.47577 148.739 6.01103 149.603C6.54952 150.464 7.52331 151.509 8.9324 152.737C10.7381 154.307 11.9795 155.733 12.6567 157.013C13.337 158.293 13.6772 159.796 13.6772 161.521C13.6772 163.768 13.121 165.493 12.0086 166.696C10.8993 167.899 9.2871 168.5 7.17184 168.5ZM19.3609 140.665H25.2037L29.6728 168.108H25.3633L24.5749 162.657V162.735H19.6753L18.8917 168.108H14.8918L19.3609 140.665ZM24.067 159.01L22.1468 145.448H22.0695L20.188 159.01H24.067ZM31.7502 140.665H43.16V144.582H36.0645V152.229H41.6316V156.152H36.0645V168.108H31.7502V140.665ZM45.2372 140.665H57.0001V144.582H49.5515V151.838H55.4717V155.76H49.5515V164.186H57.0001V168.108H45.2372V140.665ZM65.7421 140.665H70.0565V151.838H74.6852V140.665H78.9947V168.108H74.6852V155.76H70.0565V168.108H65.7421V140.665ZM88.4433 168.5C86.3281 168.5 84.7078 167.899 83.5825 166.696C82.4571 165.493 81.8944 163.794 81.8944 161.598V147.17C81.8944 144.974 82.4571 143.277 83.5825 142.077C84.7078 140.874 86.3281 140.273 88.4433 140.273C90.5618 140.273 92.1821 140.874 93.3042 142.077C94.4296 143.277 94.9923 144.974 94.9923 147.17V161.598C94.9923 163.794 94.4296 165.493 93.3042 166.696C92.1821 167.899 90.5618 168.5 88.4433 168.5ZM88.4433 164.577C89.9331 164.577 90.6779 163.676 90.6779 161.874V146.899C90.6779 145.094 89.9331 144.191 88.4433 144.191C86.9536 144.191 86.2088 145.094 86.2088 146.899V161.874C86.2088 163.676 86.9536 164.577 88.4433 164.577ZM104.165 168.5C102.075 168.5 100.481 167.905 99.3811 166.715C98.2848 165.525 97.7366 163.82 97.7366 161.598V140.665H102.051V161.912C102.051 162.854 102.24 163.534 102.617 163.954C102.997 164.369 103.541 164.577 104.247 164.577C104.95 164.577 105.49 164.369 105.867 163.954C106.248 163.534 106.438 162.854 106.438 161.912V140.665H110.597V161.598C110.597 163.82 110.048 165.525 108.948 166.715C107.852 167.905 106.257 168.5 104.165 168.5ZM119.263 168.5C117.17 168.5 115.587 167.905 114.513 166.715C113.443 165.525 112.908 163.82 112.908 161.598V160.031H116.985V161.912C116.985 163.689 117.73 164.577 119.219 164.577C119.951 164.577 120.506 164.363 120.883 163.934C121.264 163.502 121.454 162.802 121.454 161.835C121.454 160.684 121.193 159.671 120.67 158.798C120.148 157.921 119.181 156.868 117.768 155.639C115.992 154.072 114.75 152.655 114.044 151.388C113.341 150.121 112.99 148.689 112.99 147.093C112.99 144.923 113.538 143.244 114.634 142.058C115.731 140.868 117.325 140.273 119.418 140.273C121.481 140.273 123.042 140.868 124.1 142.058C125.161 143.244 125.691 144.948 125.691 147.17V148.307H121.614V146.899C121.614 145.958 121.43 145.271 121.062 144.839C120.698 144.407 120.163 144.191 119.456 144.191C118.018 144.191 117.299 145.066 117.299 146.817C117.299 147.81 117.567 148.739 118.102 149.603C118.641 150.464 119.614 151.509 121.024 152.737C122.829 154.307 124.071 155.733 124.748 157.013C125.428 158.293 125.768 159.796 125.768 161.521C125.768 163.768 125.212 165.493 124.1 166.696C122.99 167.899 121.378 168.5 119.263 168.5ZM128.237 140.665H140V144.582H132.551V151.838H138.472V155.76H132.551V164.186H140V168.108H128.237V140.665Z" fill="#B38A58"/>
<path fill-rule="evenodd" clip-rule="evenodd" d="M70.8118 46.5045C75.664 46.5045 79.7117 50.1855 79.7117 54.8569C79.7117 59.2787 75.664 62.9674 70.8118 62.9674C65.6943 62.9674 61.6466 59.2787 61.6466 54.8569C61.6466 50.6768 65.6943 46.5045 70.8118 46.5045ZM41.4249 68.1223C43.0423 68.1223 44.3944 69.3545 44.3944 70.8284V79.4303C43.0423 79.6721 42.2379 80.4129 41.1596 81.3956C40.3467 81.8869 39.8075 82.8695 39.2684 83.3608C38.7293 82.8695 38.464 82.1286 38.464 81.6373V70.8284C38.464 69.3545 39.8075 68.1223 41.4249 68.1223ZM99.9334 68.1223C101.816 68.1223 103.168 69.3545 103.168 70.8284V81.6373C103.168 82.1286 102.629 82.8695 102.09 83.3608C101.816 82.3782 101.012 81.8869 100.473 81.3956C99.3943 80.4129 98.316 79.6721 96.9639 79.4303V70.8284C97.2377 69.3545 98.5813 68.1223 99.9334 68.1223ZM70.8118 68.1223C79.1726 68.1223 86.9943 73.0354 89.9552 79.6721C89.1508 80.1634 88.6116 80.4129 88.3378 80.9042L72.1639 95.3941C71.6248 95.6436 71.0856 96.3767 70.8118 96.868C70.2727 96.3767 69.7335 95.8854 69.4683 95.3941L53.2943 80.9042C52.4814 80.4129 52.2161 80.1634 51.4031 79.6721C54.6379 73.0354 62.1857 68.1223 70.8118 68.1223ZM112.068 57.0717C113.951 57.0717 115.303 58.296 115.303 59.77V89.007H114.764C114.764 90.4809 114.49 91.7131 113.412 92.9375L99.3943 114.563C98.0422 116.528 97.2377 118.735 97.2377 121.192V126.355H73.7813V104.238C73.7813 102.272 74.8596 100.307 76.4769 98.8333L92.6509 84.3434C93.19 83.8521 93.9345 83.6026 94.679 83.6026C95.415 83.6026 96.1595 83.8521 96.6986 84.3434C97.7769 85.3261 97.7769 87.0418 96.6986 88.0244L86.4551 97.3593C85.6422 98.1002 85.6422 100.065 86.4551 100.799C86.9943 101.29 87.7987 101.539 88.5774 101.539C89.3476 101.539 90.0921 101.29 90.4943 100.799L106.403 86.5504C108.02 84.8347 109.099 83.1113 109.099 80.9042V59.77C109.099 58.296 110.451 57.0717 112.068 57.0717ZM29.5641 57.3134C31.1814 57.3134 32.5335 58.5456 32.5335 60.0195V81.3956C32.5335 83.3608 33.6118 85.3261 35.4945 86.8L51.1378 101.29C51.677 101.781 52.4814 102.031 53.2601 102.031C54.0303 102.031 54.7748 101.781 55.177 101.29C56.2553 100.307 56.2553 98.5915 55.177 97.6089L45.1988 88.2739C44.1206 87.5331 44.1206 85.5678 45.1988 84.5852C45.6096 84.2187 46.3456 84.0315 47.1243 84.0315C47.8945 84.0315 48.7075 84.2187 49.2466 84.5852L65.4205 99.0828C67.0379 100.557 68.1161 102.522 68.1161 104.737V126.846H44.3944V121.441C44.1206 119.476 43.3162 117.02 41.964 114.805L27.9467 93.1871C27.4075 91.9549 26.6031 90.4809 26.6031 89.2566V60.0195C26.6031 58.5456 27.9467 57.3134 29.5641 57.3134ZM70.2727 41.1001C62.1857 41.1001 55.4509 47.2376 55.4509 54.6151C55.4509 58.296 57.3335 61.7352 60.303 64.4414C57.8727 65.424 55.99 66.1571 53.8335 67.8806C52.2161 69.1049 50.864 70.3371 49.5204 71.8111V70.8284C49.5204 66.4066 45.4727 62.9674 40.6205 62.9674C39.8075 62.9674 38.7293 63.2092 37.651 63.2092V60.0195C37.651 55.8395 33.6118 52.1507 29.0249 52.1507C24.1728 52.1507 20.125 55.8395 20.125 60.0195V89.2566C20.125 91.7131 20.938 94.1697 22.2901 95.8854L36.3075 117.511C37.1119 118.735 37.651 120.209 37.651 121.441V129.544C37.651 131.026 39.0031 132.25 40.6205 132.25H99.6596C101.277 132.25 102.629 131.026 102.629 129.544V121.441C102.629 119.968 103.168 118.735 103.981 117.511L118.264 95.8854C119.616 93.9201 120.155 91.7131 120.155 89.2566V60.0195C120.694 55.8395 116.646 52.1507 111.794 52.1507C107.216 52.1507 103.168 55.8395 103.168 60.0195V63.2092C102.09 62.9674 101.012 62.9674 99.9334 62.9674C95.3465 62.9674 91.3073 66.4066 91.3073 70.8284V71.8111C89.9552 70.3371 88.6116 69.1049 86.9943 67.8806C84.8378 66.4066 82.9465 65.1744 80.5247 64.4414C83.4856 61.7352 85.103 58.296 85.103 54.6151C85.103 47.2376 78.3682 41.1001 70.2727 41.1001Z" fill="#B38A58"/>
<path d="M10.3589 54.8011L71.8291 6.87012" stroke="#B38A58" stroke-width="16" stroke-miterlimit="10" stroke-linejoin="round"/>
<path d="M130.46 54.8011L69.0459 6.75635" stroke="#B38A58" stroke-width="16" stroke-miterlimit="10" stroke-linejoin="round"/>
</svg>
