<svg width="25" height="22" viewBox="0 0 25 22" fill="none" xmlns="http://www.w3.org/2000/svg">
<path d="M1.25635 11.1945L12.1381 1.76332L23.0198 11.1945C23.1722 11.3238 23.3695 11.3878 23.5688 11.3725C23.7682 11.3573 23.9534 11.264 24.0845 11.1131C24.2155 10.9621 24.2817 10.7655 24.2687 10.566C24.2557 10.3665 24.1646 10.1802 24.0151 10.0475L12.6357 0.185386C12.4978 0.0658204 12.3214 0 12.1388 0C11.9563 0 11.7798 0.0658204 11.6419 0.185386L7.58631 3.69933V2.27615C7.58631 1.87375 7.42646 1.48784 7.14192 1.2033C6.85738 0.918758 6.47146 0.758905 6.06906 0.758905C5.66666 0.758905 5.28074 0.918758 4.9962 1.2033C4.71167 1.48784 4.55181 1.87375 4.55181 2.27615V6.32872L0.261037 10.0475C0.109297 10.1797 0.0161206 10.3667 0.00190261 10.5674C-0.0123154 10.7682 0.0535836 10.9664 0.185175 11.1187C0.461314 11.4343 0.939247 11.4692 1.25635 11.1945ZM9.10356 14.4141H15.1725V22.0004H19.7243C20.1267 22.0004 20.5126 21.8405 20.7971 21.556C21.0817 21.2714 21.2415 20.8855 21.2415 20.4831V13.0471C21.2415 12.5919 21.0382 12.1625 20.6862 11.8743L13.1 5.65506C12.829 5.43214 12.489 5.31026 12.1381 5.31026C11.7871 5.31026 11.4471 5.43214 11.1761 5.65506L3.58988 11.8743C3.41606 12.0163 3.27605 12.1952 3.18 12.3981C3.08395 12.6009 3.03427 12.8226 3.03457 13.0471V20.4831C3.03457 20.8855 3.19442 21.2714 3.47896 21.556C3.7635 21.8405 4.14941 22.0004 4.55181 22.0004H9.10356V14.4141Z" fill="#306645"/>
</svg>
